<?xml version="1.0" encoding="utf-8"?>
<!-- Generator: Adobe Illustrator 15.0.0, SVG Export Plug-In . SVG Version: 6.00 Build 0)  -->
<!DOCTYPE svg PUBLIC "-//W3C//DTD SVG 1.1//EN" "http://www.w3.org/Graphics/SVG/1.1/DTD/svg11.dtd">
<svg version="1.1" id="图层_1" xmlns="http://www.w3.org/2000/svg" xmlns:xlink="http://www.w3.org/1999/xlink" x="0px" y="0px"
	 width="233.579px" height="102.797px" viewBox="0 0 233.579 102.797" enable-background="new 0 0 233.579 102.797"
	 xml:space="preserve">
<g opacity="0.65">
	<path fill="#FF3719" d="M126.169,13.805c4.2,0.1,8.4,0.2,12.801,0.3c14.699,0.9,27.899,2.7,39.5,5.6c12.6,3.2,23.1,7.6,31.5,13.2
		c10,6.6,14.899,13.5,14.5,20.4c-0.5,6.9-6.101,13.4-17,19.6c-9.601,5.4-20.601,9.801-33.101,13.301
		c-12.7,3.5-25.8,5.799-39.399,6.7c-26.9,1.801-52.601-0.199-77-6.1c-13.7-3.4-24.7-8-32.9-13.9c-8.4-5.899-13.1-12.7-14.1-20
		c0.199-4.4,1.899-8.8,5.1-13.2c3.3-4.5,7.6-8.2,12.9-11.3c32.399-19,76.699-26.6,133.1-22.7c-43.9-6.2-84.5-2.6-121.6,10.7
		c-23.301,8.3-35.7,19.7-37.2,34.1c-1.4,13.5,7.6,24.6,27,33.5c20.8,9.4,44.899,14.5,72.3,15.599c41.6,1.4,77.5-5.398,107.6-20.399
		c13.9-6.801,21-15.3,21.4-25.5c0.3-10.7-6.3-20.1-19.8-28C187.869,11.705,159.369,7.705,126.169,13.805z"/>
</g>
</svg>
