<?xml version="1.0" encoding="utf-8"?>
<!-- Generator: Adobe Illustrator 15.0.0, SVG Export Plug-In . SVG Version: 6.00 Build 0)  -->
<!DOCTYPE svg PUBLIC "-//W3C//DTD SVG 1.1//EN" "http://www.w3.org/Graphics/SVG/1.1/DTD/svg11.dtd">
<svg version="1.1" id="图层_1" xmlns="http://www.w3.org/2000/svg" xmlns:xlink="http://www.w3.org/1999/xlink" x="0px" y="0px"
	 width="683.5px" height="104.5px" viewBox="0 0 683.5 104.5" enable-background="new 0 0 683.5 104.5" xml:space="preserve">
<g opacity="0.65">
	<path fill="#FF3719" d="M388.267,14.51c8.295,0,12.736-0.553,13.479-1.656c1.481-2.761-2.664-4.417-12.439-5.188
		c-32.14-1.767-64.576-2.207-97.308-1.546c-65.167,1.215-124.114,5.3-176.84,12.146C46.286,27.097,9.853,39.352,5.409,54.808
		C1.263,69.162,20.773,74.383,78.091,83.769c61.613,10.047,129.705,14.679,210.424,15.782
		c122.93,1.544,238.678,1.961,327.542-14.049c41.024-7.397,61.911-16.45,62.945-27.382c1.187-11.37-18.217-21.308-58.058-29.811
		C567.33,16.938,506.013,11.749,436.698,12.745c39.103,2.648,69.463,4.855,91.68,6.732c39.249,3.313,71.093,8.061,96.122,14.022
		c29.771,7.177,47.943,15.188,46.61,23.141c-1.334,7.839-18.008,14.656-50,21.281c-28.732,5.85-138.339,16.661-207.673,13.995
		c-39.544,0.994-107.567,1.521-150.667,0.195c-42.507-1.215-81.904-3.422-118.042-6.624c-40.878-3.644-73.314-8.833-97.603-15.566
		c-24.735-6.956-34.44-5.995-32.515-13.281c2-9.219,39.97-22.812,55.077-25.9c42.655-9.164,102.787-15.455,180.543-19.211
		C296.145,9.431,342.207,10.315,388.267,14.51z"/>
</g>
<g opacity="0.65">
	<path fill="#FF3719" d="M460.021,654.335c9.698,0,14.894-0.553,15.76-1.656c1.731-2.761-3.115-4.417-14.545-5.188
		c-37.576-1.767-75.5-2.207-113.77-1.546c-76.192,1.215-145.11,5.3-206.756,12.146c-80.521,8.832-123.119,21.087-128.313,36.543
		c-4.848,14.354,15.583,23.645,82.597,33.029c72.036,10.047,165.719,12.312,260.093,13.416
		c143.727,1.544,267.362,0.259,371.26-15.751c47.967-7.397,72.386-16.45,73.596-27.382c1.386-11.37-21.3-21.308-67.879-29.811
		c-62.687-11.371-134.377-16.561-215.416-15.564c45.717,2.648,81.214,4.855,107.188,6.732c45.889,3.313,83.118,8.061,112.382,14.022
		c34.807,7.177,55.361,15.188,53.803,23.141c-1.56,7.839-26.454,13.47-63.858,20.095c-33.593,5.851-70.611,9.016-116.5,13.102
		c-47.275,4.085-96.837,2.429-143.244,3.531c-46.232,0.994-94.546,0.773-144.937-0.553c-49.698-1.215-93.569-0.442-135.82-3.646
		c-47.793-3.645-93.304-5.545-121.702-12.279c-28.919-6.956-43.524-12.964-41.273-20.25c1.916-13.542,41.805-22.545,59.468-25.634
		c49.871-9.165,125.571-15.723,216.482-19.479C352.315,649.256,406.168,650.141,460.021,654.335z"/>
</g>
<g opacity="0.65">
	<path fill="#FF3719" d="M524.844,764.067c11.102,0,17.047-0.554,18.038-1.656c1.983-2.761-3.565-4.417-16.648-5.189
		c-43.013-1.766-86.421-2.207-130.228-1.546c-87.213,1.215-187.268-3.561-257.832,3.285C46.005,767.793,12.459,783,12.467,804.364
		C11.904,827,62.281,829.614,138.989,839c82.457,10.047,157.714,9.705,265.742,10.81c164.517,1.544,313.999,8.534,432.927-7.476
		c54.903-7.396,76.277-17.334,76.277-34.657c0.068-18.677-40.199-23.677-77.697-29.81c-71.753-11.371-153.813-16.562-246.577-15.565
		c52.33,2.649,92.962,4.856,122.695,6.733c52.525,3.313,95.142,8.06,128.639,14.021c29.341,5.303,66.507,10.171,66.507,23.142
		c0,11.302-22.361,22.845-65.177,29.47c-51.144,8.667-366.319,10.659-424,9.333c-56.887-1.215-163.63-3.467-211.993-6.669
		c-311.289-15.083-193.869-83.158,133.781-77.245C401.559,758.988,463.201,759.873,524.844,764.067z"/>
</g>
<g opacity="0.65">
	<path fill="#FF3719" d="M637,894.926c12.567-0.154,19.292-0.862,20.398-2.127c2.206-3.152-4.101-4.951-18.923-5.644
		c-48.72-1.399-356.361-0.677-436.155,8.058C129.364,904.306,58.076,913,55.503,948.905C58.076,990,168.417,991.302,211,995.289
		c51.958,3.821,166.916-0.146,289.232-0.399c186.275-0.545,355.608,5.285,490.026-14.497c62.058-9.141,86.116-20.687,85.875-40.3
		c-0.184-21.146-45.842-26.245-88.381-32.665c-81.392-11.874-174.368-16.604-279.376-14.187
		c59.283,2.27,105.313,4.202,139.003,5.912c59.514,3.02,107.825,7.8,145.831,14.084c33.292,5.594,75.438,10.588,75.617,25.271
		c0.158,12.795-24.998,26.175-73.378,34.271c-57.779,10.525-414.575,17.173-479.896,16.476
		c-64.421-0.583-194.662,3.351-249.46,0.398C67.74,982.489,36.788,952.149,99,922C172.056,886.596,567.153,891.036,637,894.926z"/>
</g>
<g opacity="0.65">
	<path fill="#FF3719" d="M699.008,1061.979c13.908-0.172,21.351-0.954,22.574-2.354c2.44-3.489-4.537-5.479-20.939-6.245
		c-53.915-1.549-394.363-0.748-482.664,8.917c-80.738,10.063-159.627,19.684-162.474,59.418
		c2.847,45.478,124.955,38.917,172.078,43.329c57.499,4.229,184.714,7.839,320.074,7.559c206.14-0.604,393.528-2.15,542.281-24.043
		c68.674-10.114,95.299-14.893,95.03-36.598c-0.203-23.4-50.729-29.044-97.805-36.147c-90.07-13.141-192.962-18.377-309.167-15.698
		c65.604,2.511,116.544,4.648,153.825,6.542c65.858,3.342,119.323,8.632,161.382,15.586c36.842,6.189,83.479,11.717,83.681,27.966
		c0.175,14.16-27.664,20.966-81.203,29.926C1031.742,1151.784,825,1165,565.613,1167.367c-71.291-0.646-216.42-5.293-277.062-8.56
		c-219.506-7.929-253.759-33.504-184.913-66.868C184.485,1052.761,621.714,1057.675,699.008,1061.979z"/>
</g>
</svg>
