<?xml version="1.0" encoding="utf-8"?>
<!-- Generator: Adobe Illustrator 15.0.0, SVG Export Plug-In . SVG Version: 6.00 Build 0)  -->
<!DOCTYPE svg PUBLIC "-//W3C//DTD SVG 1.1//EN" "http://www.w3.org/Graphics/SVG/1.1/DTD/svg11.dtd">
<svg version="1.1" id="图层_1" xmlns="http://www.w3.org/2000/svg" xmlns:xlink="http://www.w3.org/1999/xlink" x="0px" y="0px"
	 width="1044.561px" height="149.604px" viewBox="0 0 1044.561 149.604" enable-background="new 0 0 1044.561 149.604"
	 xml:space="preserve">
<g opacity="0.65">
	<path fill="#FF3719" d="M593.456,37.383c12.567-0.154,19.292-0.862,20.398-2.127c2.206-3.152-4.101-4.951-18.923-5.644
		c-48.72-1.399-356.361-0.677-436.155,8.058C85.82,46.763,14.532,55.458,11.959,91.363c2.573,41.095,112.914,42.396,155.497,46.384
		c51.958,3.821,166.916-0.146,289.232-0.399c186.275-0.545,355.608,5.285,490.026-14.497c62.058-9.141,86.116-20.687,85.875-40.3
		c-0.184-21.146-45.842-26.245-88.381-32.665c-81.392-11.874-174.368-16.604-279.376-14.187
		c59.283,2.27,105.313,4.202,139.003,5.912c59.514,3.02,107.825,7.8,145.831,14.084c33.292,5.594,75.438,10.588,75.617,25.271
		c0.158,12.795-24.998,26.175-73.378,34.271c-57.779,10.525-414.575,17.173-479.896,16.476
		c-64.421-0.583-194.662,3.351-249.46,0.398C24.196,124.947-6.756,94.607,55.456,64.458
		C128.512,29.053,523.609,33.494,593.456,37.383z"/>
</g>
</svg>
