<?xml version="1.0" encoding="utf-8"?>
<!-- Generator: Adobe Illustrator 15.0.0, SVG Export Plug-In . SVG Version: 6.00 Build 0)  -->
<!DOCTYPE svg PUBLIC "-//W3C//DTD SVG 1.1//EN" "http://www.w3.org/Graphics/SVG/1.1/DTD/svg11.dtd">
<svg version="1.1" id="图层_1" xmlns="http://www.w3.org/2000/svg" xmlns:xlink="http://www.w3.org/1999/xlink" x="0px" y="0px"
	 width="98px" height="98px" viewBox="0 0 98 98" enable-background="new 0 0 98 98" xml:space="preserve">
<g>
	<g>
		<path fill-rule="evenodd" clip-rule="evenodd" fill="#FF6600" d="M14.445,4.583c0-3.013,1.738-4.519,5.212-4.519h58.679
			c3.475,0,5.211,1.506,5.211,4.519L79.74,98.065H18.837L14.445,4.583z"/>
		<path fill-rule="evenodd" clip-rule="evenodd" fill="#096ACC" d="M22.527,12.037c0-2.583,1.327-3.874,3.982-3.874h44.857
			c2.655,0,3.981,1.291,3.981,3.874l-2.4,86.029H26.86L22.527,12.037z"/>
		<path fill-rule="evenodd" clip-rule="evenodd" fill="#049FE1" d="M24.167,13.386c0-2.583,1.327-3.874,3.982-3.874h44.857
			c0.713,0,1.328,0.098,1.845,0.293c0.332,0.579,0.497,1.323,0.497,2.23l-2.4,86.029H28.441L24.167,13.386z"/>
		<polygon fill-rule="evenodd" clip-rule="evenodd" fill="#096ACC" points="23.887,24.243 53.52,24.419 53.52,37.212 24.648,37.212 
					"/>
		<polygon fill-rule="evenodd" clip-rule="evenodd" fill="#33CCFF" points="23.187,23.343 52.818,23.519 52.818,36.312 
			23.948,36.312 		"/>
		<rect x="24.2" y="20.399" fill="none" width="28.392" height="19.894"/>
		<text transform="matrix(0.9996 0 0 1 26.2002 31.7803)" fill="#FFFFFF" font-family="'MicrosoftYaHei'" font-size="11.7366">年级</text>
		<path fill-rule="evenodd" clip-rule="evenodd" fill="#FF9900" d="M82.902,1.943c0.262,0.419,0.447,0.908,0.557,1.467
			c-1.135-0.847-2.608-1.219-4.421-1.115H20.36c-2.146,0.718-3.375,2.166-3.689,4.343l4.099,91.428h-1.933L14.445,4.583
			c0-3.013,1.738-4.519,5.212-4.519h58.679C80.575,0.065,82.098,0.691,82.902,1.943z"/>
		<g>
			<path fill-rule="evenodd" clip-rule="evenodd" fill="#096ACC" d="M69.808,61.148c-0.838,0.84-1.843,1.261-3.017,1.261
				s-2.18-0.421-3.018-1.261c-0.839-0.84-1.258-1.848-1.258-3.023s0.419-2.184,1.258-3.023c0.838-0.84,1.844-1.26,3.018-1.26
				s2.179,0.42,3.017,1.26c0.839,0.84,1.258,1.848,1.258,3.023S70.646,60.309,69.808,61.148z"/>
			<path fill-rule="evenodd" clip-rule="evenodd" fill="#FFFF00" d="M69.178,60.04c-0.78,0.782-1.717,1.174-2.811,1.174
				c-1.093,0-2.03-0.392-2.811-1.174c-0.781-0.782-1.172-1.722-1.172-2.817s0.391-2.033,1.172-2.816
				c0.78-0.782,1.718-1.174,2.811-1.174c1.094,0,2.03,0.392,2.811,1.174c0.781,0.783,1.172,1.721,1.172,2.816
				S69.959,59.258,69.178,60.04z"/>
			<path fill-rule="evenodd" clip-rule="evenodd" fill="#FFFFFF" d="M66.588,57.225c-0.355,0.357-0.783,0.535-1.281,0.535
				s-0.926-0.178-1.281-0.535c-0.355-0.355-0.534-0.784-0.534-1.283c0-0.5,0.179-0.928,0.534-1.284s0.783-0.535,1.281-0.535
				s0.926,0.179,1.281,0.535c0.356,0.356,0.534,0.784,0.534,1.284C67.122,56.44,66.944,56.869,66.588,57.225z"/>
		</g>
	</g>
	<rect x="0.025" y="0.081" fill-rule="evenodd" clip-rule="evenodd" fill="#EA6915" fill-opacity="0" width="98" height="97.95"/>
</g>
</svg>
