<?xml version="1.0" encoding="utf-8"?>
<!-- Generator: Adobe Illustrator 15.0.0, SVG Export Plug-In . SVG Version: 6.00 Build 0)  -->
<!DOCTYPE svg PUBLIC "-//W3C//DTD SVG 1.1//EN" "http://www.w3.org/Graphics/SVG/1.1/DTD/svg11.dtd">
<svg version="1.1" id="图层_1" xmlns="http://www.w3.org/2000/svg" xmlns:xlink="http://www.w3.org/1999/xlink" x="0px" y="0px"
	 width="98px" height="98px" viewBox="0 0 98 98" enable-background="new 0 0 98 98" xml:space="preserve">
<g>
	<path fill-rule="evenodd" clip-rule="evenodd" fill="#005C99" d="M13.138,92.697c0-12.406,3.641-23,10.923-31.781
		c7.31-8.748,16.128-13.122,26.455-13.122s19.131,4.374,26.413,13.122c7.31,8.781,10.964,19.375,10.964,31.781
		c0,1.439-0.048,2.852-0.145,4.24H13.283C13.186,95.549,13.138,94.137,13.138,92.697z"/>
	<path fill-rule="evenodd" clip-rule="evenodd" fill="#F7AA72" d="M47.046,0c8.493,0,15.743,3.295,21.751,9.885
		s9.013,14.543,9.013,23.859s-3.005,17.27-9.013,23.859s-13.258,9.885-21.751,9.885s-15.743-3.295-21.751-9.885
		c-6.008-6.59-9.012-14.543-9.012-23.859s3.003-17.269,9.012-23.859C31.303,3.295,38.553,0,47.046,0z"/>
	
		<rect x="14.542" y="82.999" transform="matrix(-0.2588 -0.9659 0.9659 -0.2588 -51.4153 132.9937)" fill-rule="evenodd" clip-rule="evenodd" fill="#FF9900" width="21.549" height="6.448"/>
	<path fill-rule="evenodd" clip-rule="evenodd" fill="#66E9F7" d="M0.604,97.943l0.062,0.061h-0.681L0.604,97.943z M1.966,87.457
		C34.1,82.08,50.139,85.596,50.084,98.004c1.172-14.828,17.148-17.525,47.932-8.09v8.09H50.084H2.493L1.966,87.457z"/>
	<path fill-rule="evenodd" clip-rule="evenodd" fill="#653D01" d="M47.046-0.003c8.493,0,15.743,3.295,21.751,9.885
		c6.008,6.59,9.013,14.543,9.013,23.859c0,5.082-0.895,9.755-2.683,14.019c0.219-5.461-1.031-6.345-3.749-2.651
		c-0.362-6.382-1.769-10.456-4.219-12.221c-12.849,3.532-25.875,3.622-39.079,0.269c-3.256,3.341-4.949,7.295-5.079,11.862
		c-3.204-1.623-4.392-0.35-3.564,3.819c-2.103-4.555-3.154-9.587-3.154-15.097c0-9.316,3.003-17.269,9.012-23.859
		C31.303,3.292,38.553-0.003,47.046-0.003z"/>
	<path fill-rule="evenodd" clip-rule="evenodd" d="M56.633,54.016c-0.479,0.969-1.055,1.451-1.728,1.451s-1.248-0.482-1.728-1.451
		c-0.479-0.967-0.719-2.129-0.719-3.486c0-1.358,0.24-2.52,0.719-3.487c0.479-0.967,1.055-1.451,1.728-1.451
		s1.249,0.484,1.728,1.451c0.479,0.967,0.719,2.129,0.719,3.487C57.352,51.887,57.112,53.049,56.633,54.016z"/>
	<path fill-rule="evenodd" clip-rule="evenodd" d="M40.933,54.016c-0.479,0.969-1.055,1.451-1.728,1.451
		c-0.672,0-1.248-0.482-1.728-1.451c-0.479-0.967-0.719-2.129-0.719-3.486c0-1.358,0.24-2.52,0.719-3.487
		c0.479-0.967,1.055-1.451,1.728-1.451c0.673,0,1.249,0.484,1.728,1.451c0.479,0.967,0.719,2.129,0.719,3.487
		C41.652,51.887,41.413,53.049,40.933,54.016z"/>
</g>
</svg>
