<?xml version="1.0" encoding="utf-8"?>
<!-- Generator: Adobe Illustrator 15.0.0, SVG Export Plug-In . SVG Version: 6.00 Build 0)  -->
<!DOCTYPE svg PUBLIC "-//W3C//DTD SVG 1.1//EN" "http://www.w3.org/Graphics/SVG/1.1/DTD/svg11.dtd">
<svg version="1.1" id="图层_1" xmlns="http://www.w3.org/2000/svg" xmlns:xlink="http://www.w3.org/1999/xlink" x="0px" y="0px"
	 width="98px" height="98px" viewBox="0 0 98 98" enable-background="new 0 0 98 98" xml:space="preserve">
<g>
	<g>
		<path fill-rule="evenodd" clip-rule="evenodd" fill="#FFCC00" d="M30.118,53.904c0-7.217,2.118-13.379,6.353-18.486
			c4.251-5.088,9.38-7.632,15.387-7.632c6.007,0,11.128,2.544,15.363,7.632c4.251,5.107,6.377,11.269,6.377,18.486
			c0,0.836-0.028,1.658-0.084,2.465H30.202C30.146,55.563,30.118,54.74,30.118,53.904z"/>
		<path fill-rule="evenodd" clip-rule="evenodd" fill="#F7AA72" d="M49.833-0.009c4.939,0,9.157,1.917,12.651,5.75
			s5.242,8.458,5.242,13.877s-1.748,10.044-5.242,13.877s-7.712,5.75-12.651,5.75c-4.94,0-9.157-1.917-12.652-5.75
			s-5.242-8.458-5.242-13.877s1.747-10.044,5.242-13.877S44.893-0.009,49.833-0.009z"/>
		
			<rect x="30.993" y="48.274" transform="matrix(-0.2588 -0.9659 0.9659 -0.2588 -1.5354 99.1198)" fill-rule="evenodd" clip-rule="evenodd" fill="#FF9900" width="12.534" height="3.75"/>
		<path fill-rule="evenodd" clip-rule="evenodd" fill="#66E9F7" d="M23.643,50.875c18.69-3.127,28.019-1.083,27.987,6.135
			c0.682-8.625,9.975-10.194,27.879-4.705v4.705H51.63H23.949L23.643,50.875z M22.851,56.975l0.036,0.035H22.49L22.851,56.975z"/>
		<path fill-rule="evenodd" clip-rule="evenodd" fill="#653D01" d="M49.833-0.002c4.939,0,9.157,1.917,12.651,5.75
			s5.242,8.458,5.242,13.877c0,2.956-0.521,5.674-1.561,8.154c0.127-3.176-0.6-3.69-2.181-1.542
			c-0.211-3.712-1.028-6.082-2.454-7.108c-7.473,2.055-15.05,2.107-22.73,0.157c-1.894,1.943-2.878,4.243-2.954,6.899
			c-1.864-0.944-2.555-0.204-2.073,2.221c-1.224-2.649-1.835-5.576-1.835-8.781c0-5.418,1.747-10.044,5.242-13.877
			S44.893-0.002,49.833-0.002z"/>
		<path fill-rule="evenodd" clip-rule="evenodd" d="M55.434,31.422c-0.279,0.563-0.613,0.844-1.006,0.844
			c-0.391,0-0.726-0.281-1.004-0.844c-0.279-0.563-0.418-1.238-0.418-2.028s0.139-1.466,0.418-2.028
			c0.278-0.563,0.613-0.844,1.004-0.844c0.393,0,0.727,0.281,1.006,0.844c0.278,0.563,0.418,1.239,0.418,2.028
			S55.712,30.859,55.434,31.422z"/>
		<path fill-rule="evenodd" clip-rule="evenodd" d="M46.283,31.422c-0.279,0.563-0.613,0.844-1.005,0.844
			c-0.391,0-0.726-0.281-1.004-0.844c-0.279-0.563-0.418-1.238-0.418-2.028s0.14-1.466,0.418-2.028
			c0.278-0.563,0.613-0.844,1.004-0.844c0.392,0,0.726,0.281,1.005,0.844c0.279,0.563,0.418,1.239,0.418,2.028
			S46.562,30.859,46.283,31.422z"/>
	</g>
	<g>
		<path fill-rule="evenodd" clip-rule="evenodd" fill="#653D01" d="M83.941,55.869c2.512,2.322,4.356,5.055,5.533,8.201
			c-0.808,0.975-2.163,1.908-4.066,2.801c0.106-1.465-0.527-4.232-1.9-8.301L83.941,55.869z"/>
		<path fill-rule="evenodd" clip-rule="evenodd" fill="#653D01" d="M54.906,57.619c-2.512,2.322-4.356,5.055-5.534,8.201
			c0.809,0.975,2.164,1.908,4.067,2.801c-0.106-1.465,0.527-4.232,1.9-8.301L54.906,57.619z"/>
		<path fill-rule="evenodd" clip-rule="evenodd" fill="#FF6600" d="M48.618,84.654c0-7.217,2.118-13.379,6.353-18.486
			c4.252-5.088,9.381-7.633,15.387-7.633c6.007,0,11.128,2.545,15.363,7.633c4.251,5.107,6.377,11.27,6.377,18.486
			c0,0.836-0.028,1.658-0.084,2.465H48.702C48.646,86.313,48.618,85.49,48.618,84.654z"/>
		<path fill-rule="evenodd" clip-rule="evenodd" fill="#F7AA72" d="M68.282,30.741c4.94,0,9.157,1.917,12.651,5.75
			s5.242,8.458,5.242,13.876c0,5.42-1.748,10.045-5.242,13.877c-3.494,3.834-7.711,5.75-12.651,5.75s-9.157-1.916-12.651-5.75
			c-3.494-3.832-5.241-8.457-5.241-13.877c0-5.418,1.747-10.043,5.241-13.876S63.342,30.741,68.282,30.741z"/>
		
			<rect x="49.394" y="79.024" transform="matrix(-0.2588 -0.9659 0.9659 -0.2588 -8.0796 155.5989)" fill-rule="evenodd" clip-rule="evenodd" fill="#FF9900" width="12.532" height="3.75"/>
		<path fill-rule="evenodd" clip-rule="evenodd" fill="#66E9F7" d="M41.351,87.725l0.036,0.035H40.99L41.351,87.725z M42.143,81.625
			c18.69-3.127,28.019-1.082,27.987,6.135c0.682-8.625,9.975-10.193,27.879-4.705v4.705H70.13H42.449L42.143,81.625z"/>
		<path fill-rule="evenodd" clip-rule="evenodd" fill="#653D01" d="M68.282,30.748c4.94,0,9.157,1.917,12.651,5.75
			s5.242,8.458,5.242,13.877c0,2.955-0.521,5.674-1.561,8.154c0.127-3.178-0.6-3.691-2.18-1.543
			c-0.211-3.713-1.029-6.082-2.455-7.108c-7.473,2.055-15.049,2.106-22.729,0.157c-1.894,1.943-2.878,4.242-2.954,6.898
			c-1.863-0.943-2.555-0.203-2.073,2.223c-1.223-2.65-1.834-5.576-1.834-8.781c0-5.419,1.747-10.044,5.241-13.877
			S63.342,30.748,68.282,30.748z"/>
		<path fill-rule="evenodd" clip-rule="evenodd" d="M73.883,62.172c-0.279,0.563-0.613,0.844-1.005,0.844s-0.726-0.281-1.005-0.844
			c-0.278-0.563-0.418-1.238-0.418-2.027s0.14-1.467,0.418-2.029c0.279-0.563,0.613-0.844,1.005-0.844s0.726,0.281,1.005,0.844
			s0.418,1.24,0.418,2.029S74.162,61.609,73.883,62.172z"/>
		<path fill-rule="evenodd" clip-rule="evenodd" d="M64.783,62.172c-0.279,0.563-0.613,0.844-1.006,0.844
			c-0.391,0-0.726-0.281-1.004-0.844c-0.279-0.563-0.418-1.238-0.418-2.027s0.139-1.467,0.418-2.029
			c0.278-0.563,0.613-0.844,1.004-0.844c0.393,0,0.727,0.281,1.006,0.844c0.278,0.563,0.418,1.24,0.418,2.029
			S65.062,61.609,64.783,62.172z"/>
	</g>
	<g>
		<path fill-rule="evenodd" clip-rule="evenodd" fill="#005C99" d="M7.618,94.904c0-7.217,2.118-13.379,6.353-18.486
			c4.251-5.088,9.38-7.633,15.387-7.633c6.007,0,11.128,2.545,15.363,7.633c4.251,5.107,6.377,11.27,6.377,18.486
			c0,0.836-0.028,1.658-0.084,2.465H7.702C7.646,96.563,7.618,95.74,7.618,94.904z"/>
		<path fill-rule="evenodd" clip-rule="evenodd" fill="#F7AA72" d="M27.333,40.991c4.94,0,9.157,1.917,12.652,5.75
			c3.494,3.833,5.242,8.458,5.242,13.876c0,5.42-1.748,10.045-5.242,13.877c-3.495,3.834-7.712,5.75-12.652,5.75
			s-9.157-1.916-12.651-5.75c-3.495-3.832-5.242-8.457-5.242-13.877c0-5.418,1.747-10.043,5.242-13.876
			C18.176,42.908,22.393,40.991,27.333,40.991z"/>
		
			<rect x="8.444" y="89.275" transform="matrix(-0.2588 -0.9659 0.9659 -0.2588 -69.5264 128.9494)" fill-rule="evenodd" clip-rule="evenodd" fill="#FF9900" width="12.533" height="3.749"/>
		<path fill-rule="evenodd" clip-rule="evenodd" fill="#66E9F7" d="M1.143,91.875c18.69-3.127,28.019-1.082,27.987,6.135
			c0.682-8.625,9.975-10.193,27.879-4.705v4.705H29.13H1.449L1.143,91.875z M0.351,97.975l0.036,0.035H-0.01L0.351,97.975z"/>
		<path fill-rule="evenodd" clip-rule="evenodd" fill="#653D01" d="M27.333,40.998c4.94,0,9.157,1.917,12.652,5.75
			c3.494,3.833,5.242,8.459,5.242,13.877c0,2.955-0.521,5.674-1.561,8.154c0.127-3.178-0.6-3.691-2.18-1.543
			c-0.211-3.713-1.029-6.082-2.454-7.107c-7.473,2.055-15.05,2.105-22.73,0.156c-1.894,1.943-2.878,4.242-2.954,6.898
			c-1.864-0.943-2.555-0.203-2.073,2.223c-1.224-2.65-1.835-5.576-1.835-8.781c0-5.418,1.747-10.045,5.242-13.877
			C18.176,42.915,22.393,40.998,27.333,40.998z"/>
		<path fill-rule="evenodd" clip-rule="evenodd" d="M32.933,72.422c-0.279,0.563-0.613,0.844-1.005,0.844
			c-0.391,0-0.726-0.281-1.004-0.844c-0.279-0.563-0.418-1.238-0.418-2.027s0.14-1.467,0.418-2.029
			c0.278-0.563,0.613-0.844,1.004-0.844c0.392,0,0.726,0.281,1.005,0.844s0.418,1.24,0.418,2.029S33.212,71.859,32.933,72.422z"/>
		<path fill-rule="evenodd" clip-rule="evenodd" d="M23.783,72.422c-0.279,0.563-0.613,0.844-1.005,0.844
			c-0.391,0-0.726-0.281-1.004-0.844c-0.279-0.563-0.418-1.238-0.418-2.027s0.14-1.467,0.418-2.029
			c0.278-0.563,0.613-0.844,1.004-0.844c0.392,0,0.726,0.281,1.005,0.844s0.418,1.24,0.418,2.029S24.062,71.859,23.783,72.422z"/>
	</g>
</g>
</svg>
