<?xml version="1.0" encoding="utf-8"?>
<!-- Generator: Adobe Illustrator 15.0.0, SVG Export Plug-In . SVG Version: 6.00 Build 0)  -->
<!DOCTYPE svg PUBLIC "-//W3C//DTD SVG 1.1//EN" "http://www.w3.org/Graphics/SVG/1.1/DTD/svg11.dtd">
<svg version="1.1" id="图层_1" xmlns="http://www.w3.org/2000/svg" xmlns:xlink="http://www.w3.org/1999/xlink" x="0px" y="0px"
	 width="584px" height="112px" viewBox="0 0 584 112" enable-background="new 0 0 584 112" xml:space="preserve">
<g opacity="0.65">
	<path fill="#FF3719" d="M330.741,16.594c6.938,0,10.653-0.532,11.273-1.596c1.239-2.66-2.229-4.256-10.405-5
		c-26.883-1.701-54.013-2.127-81.391-1.489c-54.507,1.17-103.812,5.106-147.913,11.702c-57.604,8.51-88.079,20.318-91.795,35.211
		c-3.468,13.83,5.317,22.774,53.259,31.817c51.535,9.681,110.997,15.106,178.512,16.171c102.82,1.487,204.66-2.987,278.988-18.413
		c34.314-7.128,51.783-15.851,52.649-26.384c0.991-10.955-15.237-20.529-48.561-28.723c-44.845-10.956-96.132-15.957-154.108-14.998
		c32.705,2.553,58.101,4.68,76.683,6.488c32.829,3.191,59.463,7.766,80.398,13.511c24.9,6.915,38.669,13.147,37.554,20.809
		c-1.115,7.553-12.345,15.326-39.104,21.71c-24.032,5.637-123.47,17.843-201,17.843c-33.076,0.958-71.493,1.306-107.542,0.028
		c-35.554-1.171-68.506-3.298-98.733-6.383c-34.191-3.511-61.321-8.511-81.637-15c-20.688-6.702-19.838-10.072-18.228-17.093
		c1.64-9.896,31.997-21.597,44.633-24.573c35.677-8.83,85.973-14.893,151.01-18.51C253.688,11.7,292.215,12.553,330.741,16.594z"/>
</g>
</svg>
