<?xml version="1.0" encoding="utf-8"?>
<!-- Generator: Adobe Illustrator 15.0.0, SVG Export Plug-In . SVG Version: 6.00 Build 0)  -->
<!DOCTYPE svg PUBLIC "-//W3C//DTD SVG 1.1//EN" "http://www.w3.org/Graphics/SVG/1.1/DTD/svg11.dtd">
<svg version="1.1" id="图层_1" xmlns="http://www.w3.org/2000/svg" xmlns:xlink="http://www.w3.org/1999/xlink" x="0px" y="0px"
	 width="458.643px" height="101.683px" viewBox="0 0 458.643 101.683" enable-background="new 0 0 458.643 101.683"
	 xml:space="preserve">
<g opacity="0.65">
	<path fill="#FF3719" d="M261.309,14.498c5.6,0,8.6-0.5,9.1-1.5c1-2.5-1.8-4-8.4-4.7c-21.7-1.6-43.6-2-65.7-1.4
		c-44,1.1-83.8,4.8-119.4,11c-46.5,8-71.1,19.1-74.1,33.1c-2.8,13,15.1,23.8,53.8,32.3c41.6,9.1,89.6,14.201,144.1,15.201
		c83,1.398,154.4-5.201,214.399-19.701c27.7-6.7,41.801-14.9,42.5-24.8c0.801-10.3-12.3-19.3-39.199-27
		c-36.2-10.3-77.601-15-124.4-14.1c26.4,2.4,46.9,4.4,61.9,6.1c26.5,3,48,7.3,64.9,12.7c20.101,6.5,29.601,13.3,28.7,20.5
		c-0.9,7.1-12.1,13.6-33.7,19.6c-19.399,5.3-42.2,9.8-68.7,13.5c-27.3,3.7-54.5,6-81.3,7c-26.7,0.9-54.6,0.701-83.7-0.5
		c-28.7-1.101-55.3-3.101-79.7-6c-27.6-3.3-49.5-8-65.9-14.101c-16.7-6.3-24.4-12.8-23.1-19.399c0.8-4.5,3.8-8.5,9-12.4
		c5.7-4.2,13.6-7.9,23.8-10.7c28.8-8.3,69.4-14,121.9-17.4C199.109,9.898,230.209,10.698,261.309,14.498z"/>
</g>
</svg>
