<?xml version="1.0" encoding="utf-8"?>
<!-- Generator: Adobe Illustrator 15.0.0, SVG Export Plug-In . SVG Version: 6.00 Build 0)  -->
<!DOCTYPE svg PUBLIC "-//W3C//DTD SVG 1.1//EN" "http://www.w3.org/Graphics/SVG/1.1/DTD/svg11.dtd">
<svg version="1.1" id="图层_1" xmlns="http://www.w3.org/2000/svg" xmlns:xlink="http://www.w3.org/1999/xlink" x="0px" y="0px"
	 width="64.809px" height="66.434px" viewBox="0 0 64.809 66.434" enable-background="new 0 0 64.809 66.434" xml:space="preserve">
<g opacity="0.65">
	<path fill="#FF3719" d="M57.611,14.415c0.3-1.8-0.1-3.4-1.2-4.6c-1.2-1.2-2.5-1.8-4.3-1.7c-1.8,0.2-3.4,0.9-4.5,2.1
		c-1.2,1.3-3.6,3.9-7.2,8c-3.7,4.1-5.2,5.7-4.399,4.9c-2.4-2.6-7.7-8.5-15.9-17.6c-1.7-2-3.4-2.4-4.7-1c-1.399,1.2-2.1,3.6-2.1,7.3
		c-0.2,1,4.7,7.8,14.6,20.3c-10,13.4-17.3,23.1-22,28.9c0.2,0.3,0.601,0.6,1.101,0.8c0.199,1.8,9.6-5.5,28.199-22.1
		c14.9,15.1,23.2,22.7,24.601,22.8c1.399,0,2.399,0,2.899-0.3c-0.699-1.2-1.699-2.7-3-4.6c-3-4.6-6.199-9.3-9.8-14.1
		c-5-6.9-7.6-10.3-7.8-10.5c3.9-4.1,7.4-7.7,10.5-10.9C55.611,19.015,57.211,16.415,57.611,14.415z"/>
</g>
</svg>
