<?xml version="1.0" encoding="utf-8"?>
<!-- Generator: Adobe Illustrator 15.0.0, SVG Export Plug-In . SVG Version: 6.00 Build 0)  -->
<!DOCTYPE svg PUBLIC "-//W3C//DTD SVG 1.1//EN" "http://www.w3.org/Graphics/SVG/1.1/DTD/svg11.dtd">
<svg version="1.1" id="图层_1" xmlns="http://www.w3.org/2000/svg" xmlns:xlink="http://www.w3.org/1999/xlink" x="0px" y="0px"
	 width="98px" height="98px" viewBox="0 0 98 98" enable-background="new 0 0 98 98" xml:space="preserve">
<g>
	<g>
		<g>
			<path fill-rule="evenodd" clip-rule="evenodd" fill="#EA6915" d="M89.598,35.503c-0.182,22.066-0.209,34.789-0.08,38.167
				c-3.084,1.342-5.623,3.527-7.619,6.553l-51.643,0.332c-0.22,0.146-0.679-8.537-1.375-26.051
				c-0.733-18.579-1.155-33.762-1.265-45.548c0-3.341,2.75-5.544,8.249-6.609l54.12,0.551C89.91,3.009,89.781,13.877,89.598,35.503z
				"/>
			<path fill-rule="evenodd" clip-rule="evenodd" fill="#FFCC00" d="M79.17,16.709l-0.221-2.589
				c-0.119-1.399-0.67-2.115-1.648-2.148H72.24c-1.051-0.159-1.691-0.82-1.924-1.983L80.82,10.1v8.647
				C79.781,18.63,79.232,17.951,79.17,16.709z"/>
			<path fill-rule="evenodd" clip-rule="evenodd" fill="#92D2ED" d="M82.729,6.167h0.027V6.14c0.619-0.672,1.389-1.167,2.311-1.487
				c1.906-0.661,2.693-0.845,2.363-0.551l0.99-0.385l-0.385,70.606c-1.764,0.93-3.523,2.463-5.279,4.6
				c-1.037-24.529-1.494-47.863-1.375-70.001V8.894h-0.109C81.588,7.792,82.074,6.882,82.729,6.167z"/>
			<path fill-rule="evenodd" clip-rule="evenodd" fill="#FEFEFF" d="M81.381,9.5L28.636,8.894c0.697-2.497,3.153-4.204,7.37-5.122
				c0.22-0.073,0.44-0.128,0.66-0.165l51.753,0.11L81.381,9.5z"/>
			<path fill-rule="evenodd" clip-rule="evenodd" fill="#FFCC00" d="M80.121,72.741L79.9,75.329c-0.121,1.4-0.67,2.115-1.65,2.148
				h-5.059c-1.051,0.158-1.693,0.82-1.926,1.982l10.506-0.109v-8.648C80.732,70.819,80.182,71.499,80.121,72.741z"/>
		</g>
		<g>
			<path fill-rule="evenodd" clip-rule="evenodd" fill="#09A254" d="M79.398,43.954c-0.182,22.067-0.211,34.79-0.082,38.167
				c-3.082,1.344-5.621,3.527-7.617,6.555l-51.643,0.33c-0.221,0.146-0.679-8.537-1.375-26.051
				c-0.733-18.578-1.156-33.761-1.266-45.547c0-3.341,2.75-5.544,8.25-6.609l54.12,0.551C79.711,11.459,79.582,22.327,79.398,43.954
				z"/>
			<path fill-rule="evenodd" clip-rule="evenodd" fill="#FFFF00" d="M69.07,25.359L68.85,22.77c-0.119-1.399-0.67-2.115-1.65-2.148
				h-5.059c-1.051-0.159-1.691-0.82-1.926-1.983l10.506,0.11v8.647C69.682,27.28,69.133,26.601,69.07,25.359z"/>
			<path fill-rule="evenodd" clip-rule="evenodd" fill="#EDC892" d="M72.777,14.717h0.027v-0.028
				c0.619-0.672,1.391-1.167,2.311-1.487c1.906-0.661,2.695-0.845,2.365-0.551l0.99-0.385l-0.385,70.607
				c-1.764,0.93-3.523,2.461-5.281,4.598c-1.035-24.529-1.494-47.862-1.375-70v-0.028H71.32
				C71.637,16.341,72.123,15.432,72.777,14.717z"/>
			<path fill-rule="evenodd" clip-rule="evenodd" fill="#FEFEFF" d="M71.43,18.049l-52.744-0.606
				c0.697-2.497,3.153-4.204,7.37-5.122c0.22-0.073,0.44-0.128,0.66-0.165l51.754,0.11L71.43,18.049z"/>
			<path fill-rule="evenodd" clip-rule="evenodd" fill="#FFFF00" d="M70.121,81.491L69.9,84.079c-0.121,1.4-0.67,2.115-1.65,2.148
				h-5.059c-1.051,0.158-1.693,0.82-1.926,1.982l10.506-0.109v-8.648C70.732,79.569,70.182,80.249,70.121,81.491z"/>
		</g>
		<g>
			<g>
				<path fill-rule="evenodd" clip-rule="evenodd" fill="#EF3521" d="M69.998,52.503c-0.182,22.066-0.209,34.789-0.08,38.168
					c-3.084,1.342-5.623,3.527-7.619,6.553l-51.643,0.332c-0.22,0.146-0.679-8.537-1.375-26.051
					c-0.733-18.58-1.155-33.762-1.265-45.548c0-3.341,2.75-5.544,8.249-6.609l54.12,0.551
					C70.311,20.009,70.182,30.877,69.998,52.503z"/>
				<path fill-rule="evenodd" clip-rule="evenodd" fill="#FF9900" d="M59.621,33.759L59.4,31.17c-0.121-1.399-0.67-2.115-1.65-2.148
					h-5.059c-1.051-0.159-1.693-0.82-1.926-1.983l10.506,0.11v8.647C60.232,35.68,59.682,35,59.621,33.759z"/>
				<rect x="10.667" y="37.625" fill-rule="evenodd" clip-rule="evenodd" fill="#FF9900" width="51.096" height="1.43"/>
				<polygon fill-rule="evenodd" clip-rule="evenodd" fill="#AA1111" points="10.846,26.004 13.376,97.491 11.671,97.491 
					9.197,26.004 				"/>
				<path fill-rule="evenodd" clip-rule="evenodd" fill="#DFAC9F" d="M63.178,23.167h0.027V23.14
					c0.619-0.672,1.391-1.167,2.311-1.487c1.906-0.661,2.695-0.845,2.365-0.551l0.988-0.385l-0.385,70.606
					c-1.762,0.93-3.523,2.463-5.279,4.6C62.17,71.394,61.711,48.06,61.83,25.921v-0.028h-0.109
					C62.037,24.792,62.523,23.882,63.178,23.167z"/>
				<path fill-rule="evenodd" clip-rule="evenodd" fill="#FEFEFF" d="M61.83,26.5L9.086,25.894c0.696-2.497,3.153-4.204,7.37-5.122
					c0.22-0.073,0.439-0.128,0.66-0.165l51.752,0.11L61.83,26.5z"/>
				<polygon fill-rule="evenodd" clip-rule="evenodd" fill="#FFCC00" points="57.045,90.761 17.225,90.761 17.225,90.019 
					57.045,89.989 				"/>
				<path fill-rule="evenodd" clip-rule="evenodd" fill="#FF9900" d="M60.57,89.892l-0.221,2.588c-0.119,1.4-0.67,2.115-1.65,2.148
					h-5.059c-1.051,0.158-1.691,0.82-1.926,1.982l10.506-0.109v-8.648C61.182,87.97,60.633,88.649,60.57,89.892z"/>
				<rect x="46.163" y="82.228" fill-rule="evenodd" clip-rule="evenodd" fill="#FF9900" width="3.863" height="4.516"/>
				<rect x="52.764" y="82.228" fill-rule="evenodd" clip-rule="evenodd" fill="#FF9900" width="3.861" height="4.516"/>
			</g>
		</g>
	</g>
	<rect y="0.025" fill-rule="evenodd" clip-rule="evenodd" fill="#EA6915" fill-opacity="0" width="97.999" height="97.95"/>
</g>
</svg>
