<?xml version="1.0" encoding="utf-8"?>
<!-- Generator: Adobe Illustrator 15.0.0, SVG Export Plug-In . SVG Version: 6.00 Build 0)  -->
<!DOCTYPE svg PUBLIC "-//W3C//DTD SVG 1.1//EN" "http://www.w3.org/Graphics/SVG/1.1/DTD/svg11.dtd">
<svg version="1.1" id="图层_1" xmlns="http://www.w3.org/2000/svg" xmlns:xlink="http://www.w3.org/1999/xlink" x="0px" y="0px"
	 width="1143.563px" height="146.604px" viewBox="0 0 1143.563 146.604" enable-background="new 0 0 1143.563 146.604"
	 xml:space="preserve">
<g opacity="0.65">
	<path fill="#FF3719" d="M650.988,21.221c13.908-0.172,21.351-0.954,22.574-2.354c2.44-3.489-4.537-5.479-20.939-6.245
		c-53.915-1.549-394.363-0.748-482.664,8.917C89.221,31.603,10.333,41.223,7.485,80.958c2.847,45.478,124.955,38.917,172.078,43.329
		c57.499,4.229,184.714,7.839,320.074,7.559c206.14-0.604,393.528-2.15,542.281-24.043c68.674-10.114,95.299-14.893,95.03-36.598
		c-0.203-23.4-50.729-29.044-97.805-36.147c-90.07-13.141-192.962-18.377-309.167-15.698c65.604,2.511,116.544,4.648,153.825,6.542
		c65.858,3.342,119.323,8.632,161.382,15.586c36.842,6.189,83.479,11.717,83.681,27.966c0.175,14.16-27.664,20.966-81.203,29.926
		c-63.939,11.648-270.682,24.864-530.068,27.231c-71.291-0.646-216.42-5.293-277.062-8.56
		C21.026,110.122-13.227,84.546,55.62,51.182C136.465,12.003,573.694,16.917,650.988,21.221z"/>
</g>
</svg>
