<?xml version="1.0" encoding="utf-8"?>
<!-- Generator: Adobe Illustrator 15.0.0, SVG Export Plug-In . SVG Version: 6.00 Build 0)  -->
<!DOCTYPE svg PUBLIC "-//W3C//DTD SVG 1.1//EN" "http://www.w3.org/Graphics/SVG/1.1/DTD/svg11.dtd">
<svg version="1.1" id="图层_1" xmlns="http://www.w3.org/2000/svg" xmlns:xlink="http://www.w3.org/1999/xlink" x="0px" y="0px"
	 width="98px" height="98px" viewBox="0 0 98 98" enable-background="new 0 0 98 98" xml:space="preserve">
<g>
	<g>
		<g>
			<g>
				<path fill-rule="evenodd" clip-rule="evenodd" fill="#D1342D" d="M19.04,78.339c3.458-2.945,10.195-4.419,20.212-4.419h47.595
					c10.016,0,13.294,1.474,9.836,4.419l-17.72,15.093c-3.459,2.945-10.196,4.418-20.211,4.418H11.156
					c-10.016,0-13.295-1.473-9.837-4.418L19.04,78.339z"/>
				<polygon fill-rule="evenodd" clip-rule="evenodd" fill="#E3701F" points="33.142,76.396 57.677,76.396 53.71,79.776 
					29.174,79.776 				"/>
				<polygon fill-rule="evenodd" clip-rule="evenodd" fill="#E3701F" points="59.341,77.797 83.877,77.797 79.909,81.176 
					55.374,81.176 				"/>
				<polygon fill-rule="evenodd" clip-rule="evenodd" fill="#E3701F" points="23.341,81.547 47.877,81.547 43.909,84.926 
					19.374,84.926 				"/>
				<polygon fill-rule="evenodd" clip-rule="evenodd" fill="#FFCC00" points="43.642,85.848 68.177,85.848 64.21,89.227 
					39.674,89.227 				"/>
				<polygon fill-rule="evenodd" clip-rule="evenodd" fill="#E3701F" points="13.191,90.197 37.727,90.197 33.76,93.576 
					9.224,93.576 				"/>
				<polygon fill-rule="evenodd" clip-rule="evenodd" fill="#E3701F" points="47.041,91.998 71.577,91.998 67.609,95.377 
					43.074,95.377 				"/>
			</g>
			<path fill-rule="evenodd" clip-rule="evenodd" fill="#0DAEF2" d="M61.236,17.737c3.934,3.2,6.4,7.633,7.4,13.3
				c0.899,5.267,0.5,11.25-1.2,17.95c-2.7,11.167-8.65,22.367-17.851,33.6C39.72,71.32,33.137,60.703,29.836,50.736
				c-2.566-7.7-3.133-14.833-1.699-21.399c1.133-5.034,3.699-9.034,7.699-12c3.733-2.7,7.967-4.017,12.7-3.95
				C53.403,13.42,57.637,14.87,61.236,17.737z"/>
			<path fill-rule="evenodd" clip-rule="evenodd" fill="#FFFFFF" d="M53.881,38.493c1.705,1.388,2.774,3.31,3.208,5.766
				c0.39,2.283,0.217,4.877-0.521,7.782c-1.171,4.841-3.75,9.696-7.738,14.566c-4.277-4.885-7.132-9.487-8.563-13.809
				c-1.112-3.337-1.358-6.43-0.737-9.277c0.491-2.182,1.604-3.917,3.339-5.203c1.618-1.17,3.453-1.741,5.506-1.712
				C50.484,36.622,52.319,37.25,53.881,38.493z"/>
		</g>
	</g>
	<rect x="-0.014" y="-0.1" fill-rule="evenodd" clip-rule="evenodd" fill="#EA6915" fill-opacity="0" width="98" height="97.95"/>
</g>
</svg>
