<?xml version="1.0" encoding="utf-8"?>
<!-- Generator: Adobe Illustrator 15.0.0, SVG Export Plug-In . SVG Version: 6.00 Build 0)  -->
<!DOCTYPE svg PUBLIC "-//W3C//DTD SVG 1.1//EN" "http://www.w3.org/Graphics/SVG/1.1/DTD/svg11.dtd">
<svg version="1.1" id="图层_1" xmlns="http://www.w3.org/2000/svg" xmlns:xlink="http://www.w3.org/1999/xlink" x="0px" y="0px"
	 width="98px" height="98px" viewBox="0 0 98 98" enable-background="new 0 0 98 98" xml:space="preserve">
<g>
	<g>
		<path fill-rule="evenodd" clip-rule="evenodd" fill="#FF9900" d="M73.161,0.829c12.953,0,19.428,6.37,19.428,19.111v57.779
			c0,12.74-6.475,19.111-19.428,19.111H24.867c-12.952,0-19.429-6.371-19.429-19.111V19.939c0-12.741,6.477-19.111,19.429-19.111
			H73.161z"/>
		<path fill-rule="evenodd" clip-rule="evenodd" fill="#FFCC00" d="M69.682,4.296c12.274,0,18.41,6.143,18.41,18.428v55.715
			c0,12.286-6.136,18.429-18.41,18.429H23.918c-12.274,0-18.411-6.143-18.411-18.429V22.724c0-12.286,6.137-18.428,18.411-18.428
			H69.682z"/>
		<path fill-rule="evenodd" clip-rule="evenodd" fill="#4FB3F4" d="M81.611,18.84v34.062c0,4.647-1.844,6.97-5.531,6.97H17.497
			c-3.688,0-5.531-2.322-5.531-6.97V18.84c0-4.647,1.843-6.97,5.531-6.97H76.08C79.768,11.87,81.611,14.193,81.611,18.84z"/>
		<path fill-rule="evenodd" clip-rule="evenodd" fill="#70E2FE" d="M79.566,19.97v31.302c0,4.271-1.767,6.405-5.302,6.405h-56.15
			c-3.534,0-5.301-2.135-5.301-6.405V19.97c0-4.27,1.767-6.405,5.301-6.405h56.15C77.8,13.565,79.566,15.7,79.566,19.97z"/>
		<g>
			<path fill-rule="evenodd" clip-rule="evenodd" fill="#FF6600" d="M36.411,87.259c-2.568,2.571-5.661,3.857-9.276,3.857
				s-6.707-1.286-9.276-3.857s-3.854-5.667-3.854-9.286s1.284-6.714,3.854-9.285c2.569-2.572,5.661-3.857,9.276-3.857
				s6.708,1.285,9.276,3.857c2.569,2.571,3.854,5.666,3.854,9.285S38.98,84.688,36.411,87.259z"/>
			<path fill-rule="evenodd" clip-rule="evenodd" fill="#FF9900" d="M34.087,84.854c-1.919,1.92-4.228,2.881-6.928,2.881
				c-2.699,0-5.008-0.961-6.927-2.881c-1.918-1.92-2.877-4.23-2.877-6.934c0-2.701,0.959-5.013,2.877-6.934
				c1.919-1.92,4.228-2.879,6.927-2.879c2.7,0,5.009,0.959,6.928,2.879c1.918,1.921,2.877,4.232,2.877,6.934
				C36.964,80.623,36.005,82.934,34.087,84.854z"/>
			<g>
				<path fill-rule="evenodd" clip-rule="evenodd" fill="#FF6600" d="M69.91,72.621c-0.999,1.002-2.202,1.502-3.609,1.502
					c-1.406,0-2.609-0.5-3.609-1.502c-0.999-1-1.499-2.204-1.499-3.612s0.5-2.612,1.499-3.613c1-1.001,2.203-1.501,3.609-1.501
					c1.407,0,2.61,0.5,3.609,1.501c1,1.001,1.5,2.205,1.5,3.613S70.91,71.621,69.91,72.621z"/>
				<path fill-rule="evenodd" clip-rule="evenodd" fill="#FFCC00" d="M68.929,70.635c-1.636-0.986-3.396-0.844-5.28,0.429
					l2.474-4.952L68.929,70.635z"/>
			</g>
			<g>
				<path fill-rule="evenodd" clip-rule="evenodd" fill="#FF6600" d="M69.91,83.328c-0.999-1-2.202-1.5-3.609-1.5
					c-1.406,0-2.609,0.5-3.609,1.5c-0.999,1-1.499,2.205-1.499,3.613s0.5,2.613,1.499,3.613c1,1,2.203,1.5,3.609,1.5
					c1.407,0,2.61-0.5,3.609-1.5c1-1,1.5-2.205,1.5-3.613S70.91,84.328,69.91,83.328z"/>
				<path fill-rule="evenodd" clip-rule="evenodd" fill="#FFCC00" d="M68.929,85.315c-1.636,0.985-3.396,0.843-5.28-0.429
					l2.474,4.953L68.929,85.315z"/>
			</g>
			<g>
				<path fill-rule="evenodd" clip-rule="evenodd" fill="#FF6600" d="M71.686,81.554c-1-1.001-1.5-2.205-1.5-3.613
					c0-1.407,0.5-2.612,1.5-3.612c0.999-1.001,2.202-1.502,3.609-1.502c1.406,0,2.609,0.501,3.609,1.502
					c0.999,1,1.499,2.205,1.499,3.612c0,1.408-0.5,2.612-1.499,3.613c-1,1.001-2.203,1.501-3.609,1.501
					C73.888,83.055,72.685,82.555,71.686,81.554z"/>
				<path fill-rule="evenodd" clip-rule="evenodd" fill="#FFCC00" d="M73.588,80.585c0.984-1.637,0.842-3.398-0.429-5.286
					l4.947,2.477L73.588,80.585z"/>
			</g>
			<g>
				<path fill-rule="evenodd" clip-rule="evenodd" fill="#FF6600" d="M60.968,81.554c1-1.001,1.5-2.205,1.5-3.613
					c0-1.407-0.5-2.612-1.5-3.612c-0.999-1.001-2.202-1.502-3.609-1.502c-1.406,0-2.609,0.501-3.609,1.502
					c-0.999,1-1.499,2.205-1.499,3.612c0,1.408,0.5,2.612,1.499,3.613c1,1.001,2.203,1.501,3.609,1.501
					C58.766,83.055,59.969,82.555,60.968,81.554z"/>
				<path fill-rule="evenodd" clip-rule="evenodd" fill="#FFCC00" d="M58.865,80.585c-0.984-1.637-0.842-3.398,0.429-5.286
					l-4.947,2.477L58.865,80.585z"/>
			</g>
		</g>
	</g>
	
		<rect x="0.001" y="-0.119" fill-rule="evenodd" clip-rule="evenodd" fill="#EA6915" fill-opacity="0" width="97.999" height="97.95"/>
</g>
</svg>
