<?xml version="1.0" encoding="utf-8"?>
<!-- Generator: Adobe Illustrator 15.0.0, SVG Export Plug-In . SVG Version: 6.00 Build 0)  -->
<!DOCTYPE svg PUBLIC "-//W3C//DTD SVG 1.1//EN" "http://www.w3.org/Graphics/SVG/1.1/DTD/svg11.dtd">
<svg version="1.1" id="图层_1" xmlns="http://www.w3.org/2000/svg" xmlns:xlink="http://www.w3.org/1999/xlink" x="0px" y="0px"
	 width="113.979px" height="91.1px" viewBox="0 0 113.979 91.1" enable-background="new 0 0 113.979 91.1" xml:space="preserve">
<g opacity="0.65">
	<path fill="#FF3719" d="M61.37,10.313c2.2,0.1,4.301,0.2,6.4,0.3c14.1,1.5,25.4,7.6,34.1,18.5c10,12.5,9.5,24.5-1.199,36
		c-9.5,10.1-21.101,16-34.9,17.7c-13.5,1.8-26.3-0.1-38.4-5.7c-13.699-6.3-21-16.5-22.199-30.5c0.3-8,3.1-15.1,8.5-21
		c16.899-18.8,38.899-26.4,65.699-22.8c-22-5.9-42.199-2.5-60.699,10c-11.601,7.8-17.801,18.5-18.601,32
		c-0.7,12.7,3.8,23.1,13.5,31.5c10.4,8.8,22.4,13.7,36.101,14.6c20.699,1.4,38.699-5.1,53.699-19.1c6.801-6.5,10.5-14.5,10.601-24
		c0.2-10.1-3.101-18.9-9.8-26.2C92.171,8.414,77.971,4.613,61.37,10.313z"/>
</g>
</svg>
